<svg width="58" height="58" viewBox="0 0 58 58" fill="none" xmlns="http://www.w3.org/2000/svg">
<path d="M54.85 19.67L34.17 6.14C32.6485 5.09471 30.846 4.53516 29 4.53516C27.1541 4.53516 25.3515 5.09471 23.83 6.14L3.15002 19.67C2.16835 20.4183 1.37316 21.3837 0.826684 22.4905C0.28021 23.5973 -0.00272546 24.8156 1.97879e-05 26.05V50C-8.13819e-07 51.0548 0.208571 52.0992 0.613731 53.0731C1.01889 54.0469 1.61264 54.9311 2.36082 55.6746C3.10899 56.4181 3.99681 57.0064 4.9732 57.4054C5.94958 57.8045 6.99525 58.0066 8.05002 58H50C52.1217 58 54.1566 57.1571 55.6569 55.6569C57.1572 54.1566 58 52.1217 58 50V26.05C58.0028 24.8156 57.7198 23.5973 57.1734 22.4905C56.6269 21.3837 55.8317 20.4183 54.85 19.67Z" fill="#FFA24D"/>
<path d="M49 58V2C49 1.46957 48.7893 0.960859 48.4142 0.585786C48.0391 0.210714 47.5304 0 47 0H11C10.4696 0 9.96086 0.210714 9.58579 0.585786C9.21071 0.960859 9 1.46957 9 2V58H49Z" fill="#E9E9E9"/>
<path d="M58 26.0499V49.9999C58 52.1217 57.1571 54.1565 55.6568 55.6568C54.1565 57.1571 52.1217 57.9999 50 57.9999H8.04997C5.92824 57.9999 3.89341 57.1571 2.39311 55.6568C0.892824 54.1565 0.0499692 52.1217 0.0499692 49.9999V26.0499C0.0458348 24.7878 0.344162 23.5431 0.919969 22.4199L23.92 42.8599C25.3648 44.0835 27.1967 44.7549 29.09 44.7549C30.9832 44.7549 32.8152 44.0835 34.26 42.8599L57.26 22.4199C57.7909 23.5542 58.0445 24.7984 58 26.0499Z" fill="#FFBE82"/>
<path d="M56 55.28C55.2503 56.1333 54.3275 56.8173 53.2929 57.2862C52.2584 57.7552 51.1359 57.9985 50 58H8.04998C6.98956 58.0009 5.93955 57.7909 4.96101 57.3823C3.98247 56.9737 3.09492 56.3747 2.34998 55.62L23.88 36.62C25.2939 35.3728 27.1145 34.6846 29 34.6846C30.8854 34.6846 32.706 35.3728 34.12 36.62L56 55.28Z" fill="#FFA24D"/>
<path d="M27.88 18.3299L25.05 15.4999C24.4875 14.9381 23.725 14.6226 22.93 14.6226C22.135 14.6226 21.3725 14.9381 20.81 15.4999C20.2482 16.0624 19.9326 16.8249 19.9326 17.6199C19.9326 18.4149 20.2482 19.1774 20.81 19.7399L25.05 23.9999C25.4215 24.3718 25.8626 24.6669 26.3482 24.8682C26.8338 25.0695 27.3543 25.1731 27.88 25.1731C28.4056 25.1731 28.9261 25.0695 29.4117 24.8682C29.8973 24.6669 30.3385 24.3718 30.71 23.9999L39.19 15.5099C39.7518 14.9474 40.0673 14.1849 40.0673 13.3899C40.0673 12.5949 39.7518 11.8324 39.19 11.2699C38.6275 10.7081 37.865 10.3926 37.07 10.3926C36.275 10.3926 35.5125 10.7081 34.95 11.2699L27.88 18.3299Z" fill="#00CC83"/>
</svg>
