<svg width="24" height="18" viewBox="0 0 24 18" fill="none" xmlns="http://www.w3.org/2000/svg">
<path d="M21.9727 0H1.46484C1.07634 0 0.703754 0.156389 0.429043 0.434763C0.154331 0.713138 0 1.09069 0 1.48438V16.3281C0 16.7218 0.154331 17.0994 0.429043 17.3777C0.703754 17.6561 1.07634 17.8125 1.46484 17.8125H21.9727C22.3612 17.8125 22.7337 17.6561 23.0085 17.3777C23.2832 17.0994 23.4375 16.7218 23.4375 16.3281V1.48438C23.4375 1.09069 23.2832 0.713138 23.0085 0.434763C22.7337 0.156389 22.3612 0 21.9727 0ZM20.8447 16.3281H2.68066L7.80762 10.9547L6.75293 9.92305L1.46484 15.4672V2.6125L10.5688 11.7934C10.8433 12.0698 11.2146 12.225 11.6016 12.225C11.9886 12.225 12.3598 12.0698 12.6343 11.7934L21.9727 2.38242V15.3707L16.582 9.9082L15.5493 10.9547L20.8447 16.3281ZM2.42432 1.48438H20.7861L11.6016 10.7395L2.42432 1.48438Z" fill="#1F1F1F"/>
</svg>
