<svg width="20" height="20" viewBox="0 0 20 20" fill="none" xmlns="http://www.w3.org/2000/svg">
<path d="M19.6023 10.24C19.6023 9.5646 19.5369 8.86745 19.428 8.21387H9.99463V12.07H15.3976C15.1797 13.3118 14.4608 14.4011 13.3933 15.0983L16.6176 17.6037C18.513 15.839 19.6023 13.2682 19.6023 10.24Z" fill="#4280EF"/>
<path d="M9.9943 19.9998C12.6958 19.9998 14.9615 19.1066 16.6173 17.5816L13.3929 15.0979C12.4997 15.708 11.345 16.0565 9.9943 16.0565C7.37997 16.0565 5.17958 14.2919 4.3735 11.939L1.06201 14.4879C2.76133 17.8648 6.20353 19.9998 9.9943 19.9998Z" fill="#34A353"/>
<path d="M4.37355 11.9173C3.95962 10.6755 3.95962 9.32477 4.37355 8.08296L1.06207 5.51221C-0.354024 8.3444 -0.354024 11.6777 1.06207 14.4881L4.37355 11.9173Z" fill="#F6B704"/>
<path d="M9.9943 3.96545C11.4104 3.94366 12.8047 4.48831 13.8287 5.46869L16.6826 2.59292C14.8744 0.893609 12.4779 -0.0214058 9.9943 0.00038023C6.20353 0.00038023 2.76133 2.13542 1.06201 5.51226L4.37349 8.08301C5.17958 5.70833 7.37997 3.96545 9.9943 3.96545Z" fill="#E54335"/>
</svg>
