<svg width="51" height="64" viewBox="0 0 51 64" fill="none" xmlns="http://www.w3.org/2000/svg">
<path d="M39.0244 64H4.16262C1.86362 64 0 62.1363 0 59.8373V29.1382C0 26.8392 1.86362 24.9756 4.16262 24.9756H34.8618C37.1608 24.9756 39.0244 26.8392 39.0244 29.1382V64Z" fill="#1D57B8"/>
<g opacity="0.2">
<path opacity="0.4" d="M34.8618 24.9756H29.6585C31.9575 24.9756 33.8212 26.8392 33.8212 29.1382V35.2252C33.8212 36.4153 33.1452 37.5033 32.076 38.0261C26.798 40.6071 23.1545 46.0323 23.1545 52.2926C23.1545 56.923 25.1482 61.0962 28.3218 64H39.0244V29.1382C39.0244 26.8392 37.1608 24.9756 34.8618 24.9756Z" fill="#E8EDFB"/>
</g>
<path d="M5.87415 13.6381V24.9756H11.3375V13.6381C11.3375 9.12337 14.9974 5.4635 19.5121 5.4635C24.0269 5.4635 27.6868 9.12337 27.6868 13.6381V24.9756H33.1501V13.6381C33.1503 6.106 27.0444 0 19.5123 0C11.9801 0 5.87415 6.106 5.87415 13.6381Z" fill="#E9E9E9"/>
<g opacity="0.3">
<path d="M5.87415 20.813H11.3375V24.9756H5.87415V20.813Z" fill="#A5A5A5"/>
</g>
<g opacity="0.3">
<path d="M27.6869 20.813H33.1503V24.9756H27.6869V20.813Z" fill="#A5A5A5"/>
</g>
<path d="M39.0244 64C45.4902 64 50.7318 58.7584 50.7318 52.2926C50.7318 45.8268 45.4902 40.5852 39.0244 40.5852C32.5586 40.5852 27.317 45.8268 27.317 52.2926C27.317 58.7584 32.5586 64 39.0244 64Z" fill="#FF7272"/>
<path opacity="0.2" d="M45.1419 42.3096C46.2351 44.0899 46.866 46.1847 46.866 48.4271C46.866 54.8928 41.6245 60.1344 35.1586 60.1344C32.9163 60.1344 30.8215 59.5036 29.0411 58.4103C31.1004 61.7634 34.801 64.0001 39.0244 64.0001C45.4901 64.0001 50.7318 58.7586 50.7318 52.2927C50.7318 48.0693 48.495 44.3687 45.1419 42.3096Z" fill="#FF3636"/>
<path d="M23.6749 40.0015C23.6749 37.7025 21.8112 35.8389 19.5122 35.8389C17.2132 35.8389 15.3496 37.7025 15.3496 40.0015C15.3496 41.542 16.1871 42.886 17.4309 43.6059V51.0555C17.4309 52.205 18.3627 53.1367 19.5121 53.1367C20.6616 53.1367 21.5934 52.2049 21.5934 51.0555V43.6059C22.8374 42.886 23.6749 41.542 23.6749 40.0015Z" fill="white"/>
<path d="M39.0245 56.9156C38.5066 56.9156 38.087 56.4958 38.087 55.9781V52.9418C38.087 52.424 38.5066 52.0043 39.0245 52.0043C39.9128 52.0043 40.7396 51.6489 41.3522 51.0037C41.9645 50.3588 42.2763 49.513 42.23 48.6222C42.1435 46.9527 40.7646 45.6186 39.0911 45.5848C37.4691 45.5538 36.0693 46.7388 35.8452 48.3453C35.8247 48.4923 35.8143 48.6434 35.8143 48.7942C35.8143 49.3119 35.3947 49.7317 34.8768 49.7317C34.359 49.7317 33.9393 49.3119 33.9393 48.7942C33.9393 48.557 33.9558 48.3188 33.9883 48.0862C34.3438 45.5394 36.5537 43.6609 39.129 43.7102C41.7806 43.7635 43.9652 45.8786 44.1026 48.5251C44.1757 49.9344 43.6818 51.2732 42.712 52.2947C41.9612 53.0854 41.0073 53.6012 39.962 53.7942V55.9782C39.962 56.4958 39.5422 56.9156 39.0245 56.9156Z" fill="white"/>
<path d="M39.0247 60.8765C39.5424 60.8765 39.9622 60.4567 39.9622 59.939C39.9622 59.4212 39.5424 59.0015 39.0247 59.0015C38.5069 59.0015 38.0872 59.4212 38.0872 59.939C38.0872 60.4567 38.5069 60.8765 39.0247 60.8765Z" fill="white"/>
</svg>
