<svg width="51" height="50" viewBox="0 0 51 50" fill="none" xmlns="http://www.w3.org/2000/svg">
<path d="M50.542 50H0V0H50.542V50ZM1.68652 48.4268H3.73535V25.8027H1.68652V48.4268ZM5.10156 48.4268H7.15039V25.8027H5.10156V48.4268ZM8.5166 48.4268H10.5654V25.8027H8.5166V48.4268ZM11.9316 48.4268H13.9805V25.8027H11.9316V48.4268ZM15.3467 48.4268H17.3955V25.8027H15.3467V48.4268ZM18.7617 48.4268H20.8105V25.8027H18.7617V48.4268ZM22.1768 48.4268H24.2256V25.8027H22.1768V48.4268ZM25.9688 48.2588H49.0459V46.209H25.9688V48.2588ZM25.9688 44.8438H49.0459V42.7939H25.9688V44.8438ZM25.9688 41.4287H49.0459V39.3789H25.9688V41.4287ZM25.9688 38.0137H49.0459V35.9639H25.9688V38.0137ZM25.9688 34.5986H49.0459V32.5488H25.9688V34.5986ZM25.9688 31.1836H49.0459V29.1338H25.9688V31.1836ZM25.9688 27.7686H49.0459V25.7197H25.9688V27.7686ZM25.9688 24.1416H28.0176V1.51758H25.9688V24.1416ZM29.4746 24.1416H31.5234V1.51758H29.4746V24.1416ZM32.9805 24.1416H35.0303V1.51758H32.9805V24.1416ZM36.4873 24.1416H38.5361V1.51758H36.4873V24.1416ZM39.9932 24.1416H42.042V1.51758H39.9932V24.1416ZM43.499 24.1416H45.5479V1.51758H43.499V24.1416ZM47.0049 1.51758V24.1416H49.0547V1.51758H47.0049ZM1.51465 24.0566H24.2285V22.0078H1.51465V24.0566ZM1.51465 20.6416H24.2285V18.5928H1.51465V20.6416ZM1.51465 17.2266H24.2285V15.1777H1.51465V17.2266ZM1.51465 13.8115H24.2285V11.7627H1.51465V13.8115ZM1.51465 10.3965H24.2285V8.34766H1.51465V10.3965ZM1.51465 6.98145H24.2285V4.93262H1.51465V6.98145ZM1.51465 3.56641H24.2285V1.51758H1.51465V3.56641Z" fill="black"/>
</svg>
