<svg width="160" height="202" viewBox="0 0 160 202" fill="none" xmlns="http://www.w3.org/2000/svg">
<path d="M105.542 89H55V39H105.542V89ZM56.6865 87.4268H58.7354V64.8027H56.6865V87.4268ZM60.1016 87.4268H62.1504V64.8027H60.1016V87.4268ZM63.5166 87.4268H65.5654V64.8027H63.5166V87.4268ZM66.9316 87.4268H68.9805V64.8027H66.9316V87.4268ZM70.3467 87.4268H72.3955V64.8027H70.3467V87.4268ZM73.7617 87.4268H75.8105V64.8027H73.7617V87.4268ZM77.1768 87.4268H79.2256V64.8027H77.1768V87.4268ZM80.9688 87.2588H104.046V85.209H80.9688V87.2588ZM80.9688 83.8438H104.046V81.7939H80.9688V83.8438ZM80.9688 80.4287H104.046V78.3789H80.9688V80.4287ZM80.9688 77.0137H104.046V74.9639H80.9688V77.0137ZM80.9688 73.5986H104.046V71.5488H80.9688V73.5986ZM80.9688 70.1836H104.046V68.1338H80.9688V70.1836ZM80.9688 66.7686H104.046V64.7197H80.9688V66.7686ZM80.9688 63.1416H83.0176V40.5176H80.9688V63.1416ZM84.4746 63.1416H86.5234V40.5176H84.4746V63.1416ZM87.9805 63.1416H90.0303V40.5176H87.9805V63.1416ZM91.4873 63.1416H93.5361V40.5176H91.4873V63.1416ZM94.9932 63.1416H97.042V40.5176H94.9932V63.1416ZM98.499 63.1416H100.548V40.5176H98.499V63.1416ZM102.005 40.5176V63.1416H104.055V40.5176H102.005ZM56.5146 63.0566H79.2285V61.0078H56.5146V63.0566ZM56.5146 59.6416H79.2285V57.5928H56.5146V59.6416ZM56.5146 56.2266H79.2285V54.1777H56.5146V56.2266ZM56.5146 52.8115H79.2285V50.7627H56.5146V52.8115ZM56.5146 49.3965H79.2285V47.3477H56.5146V49.3965ZM56.5146 45.9814H79.2285V43.9326H56.5146V45.9814ZM56.5146 42.5664H79.2285V40.5176H56.5146V42.5664Z" fill="black"/>
<path d="M12.3875 122.669V136H10.4392V129.786H3.28147V136H1.3331V122.669H3.28147V128.207H10.4392V122.669H12.3875ZM22.4359 122.669H31.0293V124.289H24.4048V128.268H30.3525V129.868H24.4048V134.38H31.3164V136H22.4359V122.669ZM42.7041 122.669L46.3547 127.94L50.0874 122.669H52.2819L47.6468 128.965L52.8561 136H50.4976L46.2932 130.073L42.1093 136H39.8944L45.0011 128.965L40.3661 122.669H42.7041ZM69.0715 122.669L74.7731 136H72.7427L70.9994 131.96H64.8672L63.2059 136H61.196L66.9181 122.669H69.0715ZM65.5029 130.36H70.3841L68.0461 124.556H67.8615L65.5029 130.36ZM90.9555 122.669L96.657 136H94.6266L92.8833 131.96H86.7511L85.0898 136H83.0799L88.802 122.669H90.9555ZM87.3869 130.36H92.2681L89.93 124.556H89.7454L87.3869 130.36ZM111.281 122.669C111.951 122.669 112.566 122.758 113.127 122.936C113.701 123.1 114.193 123.346 114.603 123.674C115.013 124.002 115.335 124.399 115.567 124.864C115.8 125.328 115.916 125.855 115.916 126.443C115.916 127.236 115.67 127.954 115.177 128.596C114.685 129.225 113.954 129.67 112.983 129.929L116.839 136H114.562L110.994 130.278H107.794V136H105.846V122.669H111.281ZM107.794 128.699H110.994C111.869 128.699 112.58 128.507 113.127 128.124C113.687 127.742 113.967 127.181 113.967 126.443C113.967 125.704 113.701 125.157 113.168 124.802C112.634 124.433 111.903 124.248 110.973 124.248H107.794V128.699ZM136.191 125.376C135.535 124.898 134.892 124.549 134.263 124.33C133.648 124.112 132.971 124.002 132.233 124.002C131.44 124.002 130.715 124.139 130.059 124.412C129.416 124.672 128.862 125.041 128.397 125.52C127.946 125.985 127.598 126.545 127.351 127.202C127.105 127.844 126.982 128.548 126.982 129.314C126.982 130.175 127.119 130.934 127.392 131.591C127.666 132.233 128.035 132.78 128.5 133.231C128.978 133.669 129.532 133.997 130.161 134.216C130.804 134.434 131.487 134.544 132.212 134.544C132.622 134.544 133.005 134.523 133.361 134.482C133.716 134.441 134.058 134.373 134.386 134.277C134.714 134.168 135.042 134.031 135.37 133.867C135.699 133.703 136.04 133.498 136.396 133.252L136.97 134.934C136.232 135.439 135.473 135.788 134.694 135.979C133.928 136.171 133.032 136.267 132.007 136.267C131.118 136.267 130.25 136.13 129.402 135.856C128.568 135.569 127.823 135.145 127.167 134.585C126.524 134.011 126.005 133.286 125.608 132.411C125.225 131.536 125.034 130.504 125.034 129.314C125.034 128.289 125.225 127.352 125.608 126.504C125.991 125.643 126.511 124.911 127.167 124.31C127.823 123.708 128.589 123.243 129.464 122.915C130.339 122.573 131.262 122.402 132.233 122.402C133.231 122.402 134.092 122.519 134.817 122.751C135.555 122.984 136.273 123.36 136.97 123.879L136.191 125.376ZM157.524 122.669V136H155.575V129.786H148.418V136H146.469V122.669H148.418V128.207H155.575V122.669H157.524Z" fill="black"/>
<path d="M21.2892 176.022H19.9966L23.7353 165.84H25.008L28.7466 176.022H27.454L24.4114 167.451H24.3319L21.2892 176.022ZM21.7665 172.045H26.9767V173.138H21.7665V172.045ZM35.2843 171.428V176.022H34.111V168.386H35.2445V169.579H35.3439C35.5229 169.191 35.7947 168.879 36.1593 168.644C36.5239 168.405 36.9945 168.286 37.5712 168.286C38.0882 168.286 38.5407 168.392 38.9284 168.604C39.3162 168.813 39.6178 169.131 39.8333 169.559C40.0487 169.983 40.1564 170.52 40.1564 171.17V176.022H38.9831V171.249C38.9831 170.649 38.8274 170.182 38.5158 169.847C38.2042 169.509 37.7767 169.34 37.2331 169.34C36.8586 169.34 36.5239 169.421 36.2289 169.584C35.9372 169.746 35.7069 169.983 35.5378 170.295C35.3688 170.606 35.2843 170.984 35.2843 171.428ZM45.5021 176.181C44.7663 176.181 44.1316 176.019 43.598 175.694C43.0677 175.366 42.6584 174.908 42.37 174.322C42.085 173.732 41.9425 173.046 41.9425 172.263C41.9425 171.481 42.085 170.792 42.37 170.195C42.6584 169.595 43.0594 169.128 43.5732 168.793C44.0902 168.455 44.6934 168.286 45.3828 168.286C45.7805 168.286 46.1733 168.352 46.5611 168.485C46.9489 168.618 47.3018 168.833 47.62 169.131C47.9382 169.426 48.1918 169.817 48.3807 170.305C48.5696 170.792 48.6641 171.392 48.6641 172.104V172.601H42.7777V171.587H47.4709C47.4709 171.156 47.3847 170.772 47.2124 170.434C47.0433 170.096 46.8014 169.829 46.4865 169.633C46.175 169.438 45.8071 169.34 45.3828 169.34C44.9155 169.34 44.5111 169.456 44.1697 169.688C43.8317 169.917 43.5715 170.215 43.3892 170.583C43.2069 170.951 43.1158 171.345 43.1158 171.766V172.442C43.1158 173.019 43.2152 173.508 43.4141 173.909C43.6162 174.307 43.8963 174.61 44.2543 174.819C44.6122 175.024 45.0282 175.127 45.5021 175.127C45.8104 175.127 46.0888 175.084 46.3374 174.998C46.5893 174.908 46.8063 174.776 46.9886 174.6C47.1709 174.421 47.3118 174.199 47.4112 173.934L48.5447 174.252C48.4254 174.636 48.2249 174.975 47.9432 175.266C47.6615 175.555 47.3134 175.78 46.8991 175.942C46.4848 176.101 46.0192 176.181 45.5021 176.181ZM52.179 176.022L49.8523 168.386H51.0852L52.7358 174.232H52.8153L54.446 168.386H55.6989L57.3097 174.212H57.3892L59.0398 168.386H60.2727L57.946 176.022H56.7926L55.1222 170.155H55.0028L53.3324 176.022H52.179ZM67.4915 176.022L65.1648 168.386H66.3977L68.0483 174.232H68.1278L69.7585 168.386H71.0114L72.6222 174.212H72.7017L74.3523 168.386H75.5852L73.2585 176.022H72.1051L70.4347 170.155H70.3153L68.6449 176.022H67.4915ZM79.3835 176.201C78.8996 176.201 78.4605 176.11 78.0661 175.927C77.6716 175.742 77.3584 175.475 77.1264 175.127C76.8944 174.776 76.7784 174.351 76.7784 173.854C76.7784 173.417 76.8646 173.062 77.0369 172.79C77.2093 172.515 77.4396 172.3 77.728 172.144C78.0163 171.988 78.3345 171.872 78.6825 171.796C79.0339 171.717 79.3868 171.654 79.7415 171.607C80.2055 171.547 80.5817 171.503 80.87 171.473C81.1617 171.44 81.3738 171.385 81.5064 171.309C81.6423 171.233 81.7102 171.1 81.7102 170.911V170.871C81.7102 170.381 81.576 170 81.3075 169.728C81.0424 169.456 80.6397 169.32 80.0994 169.32C79.5393 169.32 79.1001 169.443 78.782 169.688C78.4638 169.933 78.2401 170.195 78.1108 170.474L76.9972 170.076C77.196 169.612 77.4612 169.251 77.7926 168.992C78.1274 168.73 78.492 168.548 78.8864 168.445C79.2841 168.339 79.6752 168.286 80.0597 168.286C80.3049 168.286 80.5866 168.316 80.9048 168.376C81.2263 168.432 81.5362 168.55 81.8345 168.729C82.1361 168.908 82.3864 169.178 82.5852 169.539C82.7841 169.9 82.8835 170.384 82.8835 170.991V176.022H81.7102V174.988H81.6506C81.571 175.154 81.4384 175.331 81.2528 175.52C81.0672 175.709 80.8203 175.869 80.5121 176.002C80.2038 176.135 79.8277 176.201 79.3835 176.201ZM79.5625 175.147C80.0265 175.147 80.4176 175.056 80.7358 174.873C81.0573 174.691 81.2992 174.456 81.4616 174.168C81.6274 173.879 81.7102 173.576 81.7102 173.258V172.184C81.6605 172.244 81.5511 172.298 81.3821 172.348C81.2164 172.394 81.0241 172.436 80.8054 172.472C80.59 172.505 80.3795 172.535 80.174 172.562C79.9718 172.585 79.8078 172.605 79.6818 172.621C79.3769 172.661 79.0919 172.726 78.8267 172.815C78.5649 172.901 78.3527 173.032 78.1903 173.208C78.0313 173.38 77.9517 173.616 77.9517 173.914C77.9517 174.322 78.1025 174.63 78.4041 174.839C78.709 175.044 79.0952 175.147 79.5625 175.147ZM85.5073 178.886C85.3084 178.886 85.1311 178.869 84.9753 178.836C84.8195 178.806 84.7118 178.776 84.6522 178.746L84.9505 177.712C85.2355 177.785 85.4874 177.812 85.7061 177.792C85.9249 177.772 86.1188 177.674 86.2878 177.498C86.4602 177.326 86.6176 177.046 86.7601 176.658L86.9789 176.062L84.155 168.386H85.4277L87.5357 174.471H87.6152L89.7232 168.386H90.9959L87.7544 177.136C87.6086 177.53 87.428 177.856 87.2125 178.115C86.9971 178.377 86.7469 178.571 86.4618 178.697C86.1801 178.823 85.8619 178.886 85.5073 178.886ZM99.8031 168.386V169.38H95.8457V168.386H99.8031ZM96.9991 166.556H98.1724V173.834C98.1724 174.166 98.2205 174.414 98.3166 174.58C98.416 174.743 98.542 174.852 98.6944 174.908C98.8502 174.961 99.0143 174.988 99.1866 174.988C99.3159 174.988 99.4219 174.981 99.5048 174.968C99.5877 174.951 99.6539 174.938 99.7037 174.928L99.9423 175.982C99.8627 176.012 99.7517 176.042 99.6092 176.072C99.4667 176.105 99.286 176.121 99.0673 176.121C98.7359 176.121 98.411 176.05 98.0929 175.908C97.778 175.765 97.5162 175.548 97.3074 175.256C97.1019 174.965 96.9991 174.597 96.9991 174.153V166.556ZM104.588 176.181C103.899 176.181 103.294 176.017 102.774 175.689C102.257 175.361 101.852 174.902 101.561 174.312C101.272 173.722 101.128 173.032 101.128 172.244C101.128 171.448 101.272 170.754 101.561 170.16C101.852 169.567 102.257 169.106 102.774 168.778C103.294 168.45 103.899 168.286 104.588 168.286C105.278 168.286 105.881 168.45 106.398 168.778C106.918 169.106 107.323 169.567 107.611 170.16C107.903 170.754 108.048 171.448 108.048 172.244C108.048 173.032 107.903 173.722 107.611 174.312C107.323 174.902 106.918 175.361 106.398 175.689C105.881 176.017 105.278 176.181 104.588 176.181ZM104.588 175.127C105.112 175.127 105.543 174.993 105.881 174.724C106.219 174.456 106.469 174.103 106.632 173.665C106.794 173.228 106.875 172.754 106.875 172.244C106.875 171.733 106.794 171.257 106.632 170.817C106.469 170.376 106.219 170.02 105.881 169.748C105.543 169.476 105.112 169.34 104.588 169.34C104.065 169.34 103.634 169.476 103.296 169.748C102.958 170.02 102.707 170.376 102.545 170.817C102.383 171.257 102.301 171.733 102.301 172.244C102.301 172.754 102.383 173.228 102.545 173.665C102.707 174.103 102.958 174.456 103.296 174.724C103.634 174.993 104.065 175.127 104.588 175.127ZM116.879 176.181C116.19 176.181 115.585 176.017 115.065 175.689C114.548 175.361 114.143 174.902 113.852 174.312C113.563 173.722 113.419 173.032 113.419 172.244C113.419 171.448 113.563 170.754 113.852 170.16C114.143 169.567 114.548 169.106 115.065 168.778C115.585 168.45 116.19 168.286 116.879 168.286C117.569 168.286 118.172 168.45 118.689 168.778C119.209 169.106 119.614 169.567 119.902 170.16C120.194 170.754 120.339 171.448 120.339 172.244C120.339 173.032 120.194 173.722 119.902 174.312C119.614 174.902 119.209 175.361 118.689 175.689C118.172 176.017 117.569 176.181 116.879 176.181ZM116.879 175.127C117.403 175.127 117.834 174.993 118.172 174.724C118.51 174.456 118.76 174.103 118.923 173.665C119.085 173.228 119.166 172.754 119.166 172.244C119.166 171.733 119.085 171.257 118.923 170.817C118.76 170.376 118.51 170.02 118.172 169.748C117.834 169.476 117.403 169.34 116.879 169.34C116.356 169.34 115.925 169.476 115.587 169.748C115.249 170.02 114.998 170.376 114.836 170.817C114.674 171.257 114.592 171.733 114.592 172.244C114.592 172.754 114.674 173.228 114.836 173.665C114.998 174.103 115.249 174.456 115.587 174.724C115.925 174.993 116.356 175.127 116.879 175.127ZM123.601 176.022L121.274 168.386H122.507L124.158 174.232H124.237L125.868 168.386H127.121L128.732 174.212H128.811L130.462 168.386H131.695L129.368 176.022H128.214L126.544 170.155H126.425L124.754 176.022H123.601ZM134.419 171.428V176.022H133.246V168.386H134.379V169.579H134.479C134.658 169.191 134.929 168.879 135.294 168.644C135.659 168.405 136.129 168.286 136.706 168.286C137.223 168.286 137.675 168.392 138.063 168.604C138.451 168.813 138.753 169.131 138.968 169.559C139.183 169.983 139.291 170.52 139.291 171.17V176.022H138.118V171.249C138.118 170.649 137.962 170.182 137.651 169.847C137.339 169.509 136.911 169.34 136.368 169.34C135.993 169.34 135.659 169.421 135.364 169.584C135.072 169.746 134.842 169.983 134.673 170.295C134.504 170.606 134.419 170.984 134.419 171.428ZM23.8745 198.886C23.6756 198.886 23.4983 198.869 23.3425 198.836C23.1867 198.806 23.079 198.776 23.0194 198.746L23.3176 197.712C23.6027 197.785 23.8546 197.812 24.0733 197.792C24.2921 197.772 24.486 197.674 24.655 197.498C24.8274 197.326 24.9848 197.046 25.1273 196.658L25.3461 196.062L22.5222 188.386H23.7949L25.9029 194.471H25.9824L28.0904 188.386H29.3631L26.1216 197.136C25.9758 197.53 25.7952 197.856 25.5797 198.115C25.3643 198.377 25.1141 198.571 24.829 198.697C24.5473 198.823 24.2291 198.886 23.8745 198.886ZM33.7406 196.181C33.0512 196.181 32.4463 196.017 31.926 195.689C31.4089 195.361 31.0046 194.902 30.7129 194.312C30.4245 193.722 30.2804 193.032 30.2804 192.244C30.2804 191.448 30.4245 190.754 30.7129 190.16C31.0046 189.567 31.4089 189.106 31.926 188.778C32.4463 188.45 33.0512 188.286 33.7406 188.286C34.43 188.286 35.0332 188.45 35.5502 188.778C36.0706 189.106 36.475 189.567 36.7633 190.16C37.055 190.754 37.2008 191.448 37.2008 192.244C37.2008 193.032 37.055 193.722 36.7633 194.312C36.475 194.902 36.0706 195.361 35.5502 195.689C35.0332 196.017 34.43 196.181 33.7406 196.181ZM33.7406 195.127C34.2643 195.127 34.6951 194.993 35.0332 194.724C35.3713 194.456 35.6215 194.103 35.7839 193.665C35.9463 193.228 36.0275 192.754 36.0275 192.244C36.0275 191.733 35.9463 191.257 35.7839 190.817C35.6215 190.376 35.3713 190.02 35.0332 189.748C34.6951 189.476 34.2643 189.34 33.7406 189.34C33.2169 189.34 32.786 189.476 32.448 189.748C32.1099 190.02 31.8597 190.376 31.6973 190.817C31.5349 191.257 31.4537 191.733 31.4537 192.244C31.4537 192.754 31.5349 193.228 31.6973 193.665C31.8597 194.103 32.1099 194.456 32.448 194.724C32.786 194.993 33.2169 195.127 33.7406 195.127ZM43.8043 192.9V188.386H44.9776V196.022H43.8043V194.729H43.7248C43.5458 195.117 43.2674 195.447 42.8896 195.719C42.5117 195.987 42.0344 196.121 41.4577 196.121C40.9805 196.121 40.5562 196.017 40.185 195.808C39.8138 195.596 39.5221 195.278 39.31 194.854C39.0979 194.426 38.9918 193.887 38.9918 193.238V188.386H40.1651V193.158C40.1651 193.715 40.3209 194.159 40.6325 194.491C40.9473 194.822 41.3484 194.988 41.8356 194.988C42.1272 194.988 42.4239 194.913 42.7255 194.764C43.0304 194.615 43.2856 194.386 43.4911 194.078C43.6999 193.77 43.8043 193.377 43.8043 192.9ZM47.1266 196.022V188.386H48.2601V189.539H48.3397C48.4789 189.161 48.7308 188.855 49.0953 188.619C49.4599 188.384 49.8709 188.266 50.3283 188.266C50.4145 188.266 50.5222 188.268 50.6515 188.271C50.7807 188.275 50.8785 188.279 50.9448 188.286V189.479C50.905 189.469 50.8139 189.454 50.6713 189.435C50.5321 189.411 50.3846 189.4 50.2289 189.4C49.8577 189.4 49.5262 189.478 49.2346 189.633C48.9462 189.786 48.7175 189.998 48.5485 190.27C48.3828 190.538 48.2999 190.845 48.2999 191.19V196.022H47.1266ZM59.1566 196.181C58.5202 196.181 57.9585 196.02 57.4712 195.699C56.984 195.374 56.6029 194.917 56.3278 194.327C56.0527 193.733 55.9151 193.032 55.9151 192.224C55.9151 191.422 56.0527 190.726 56.3278 190.136C56.6029 189.546 56.9857 189.09 57.4762 188.768C57.9667 188.447 58.5335 188.286 59.1765 188.286C59.6737 188.286 60.0664 188.369 60.3548 188.535C60.6464 188.697 60.8685 188.883 61.021 189.092C61.1767 189.297 61.2977 189.466 61.3839 189.599H61.4833V185.84H62.6566V196.022H61.5231V194.849H61.3839C61.2977 194.988 61.1751 195.163 61.016 195.376C60.8569 195.584 60.6299 195.772 60.3349 195.937C60.0399 196.1 59.6471 196.181 59.1566 196.181ZM59.3157 195.127C59.7863 195.127 60.1841 195.004 60.5089 194.759C60.8337 194.511 61.0806 194.168 61.2496 193.73C61.4187 193.289 61.5032 192.78 61.5032 192.204C61.5032 191.634 61.4203 191.135 61.2546 190.707C61.0889 190.276 60.8436 189.942 60.5188 189.703C60.194 189.461 59.793 189.34 59.3157 189.34C58.8185 189.34 58.4042 189.468 58.0728 189.723C57.7447 189.975 57.4978 190.318 57.332 190.752C57.1696 191.183 57.0884 191.667 57.0884 192.204C57.0884 192.747 57.1713 193.241 57.337 193.685C57.506 194.126 57.7546 194.477 58.0827 194.739C58.4142 194.998 58.8252 195.127 59.3157 195.127ZM64.9684 196.022V188.386H66.1019V189.539H66.1815C66.3207 189.161 66.5726 188.855 66.9371 188.619C67.3017 188.384 67.7127 188.266 68.1701 188.266C68.2563 188.266 68.364 188.268 68.4933 188.271C68.6225 188.275 68.7203 188.279 68.7866 188.286V189.479C68.7468 189.469 68.6557 189.454 68.5131 189.435C68.3739 189.411 68.2264 189.4 68.0707 189.4C67.6995 189.4 67.368 189.478 67.0763 189.633C66.788 189.786 66.5593 189.998 66.3903 190.27C66.2246 190.538 66.1417 190.845 66.1417 191.19V196.022H64.9684ZM73.1467 196.181C72.4109 196.181 71.7762 196.019 71.2425 195.694C70.7122 195.366 70.3029 194.908 70.0146 194.322C69.7295 193.732 69.587 193.046 69.587 192.263C69.587 191.481 69.7295 190.792 70.0146 190.195C70.3029 189.595 70.704 189.128 71.2177 188.793C71.7347 188.455 72.3379 188.286 73.0273 188.286C73.4251 188.286 73.8178 188.352 74.2056 188.485C74.5934 188.618 74.9464 188.833 75.2646 189.131C75.5827 189.426 75.8363 189.817 76.0252 190.305C76.2141 190.792 76.3086 191.392 76.3086 192.104V192.601H70.4222V191.587H75.1154C75.1154 191.156 75.0292 190.772 74.8569 190.434C74.6879 190.096 74.4459 189.829 74.131 189.633C73.8195 189.438 73.4516 189.34 73.0273 189.34C72.56 189.34 72.1557 189.456 71.8143 189.688C71.4762 189.917 71.216 190.215 71.0337 190.583C70.8514 190.951 70.7603 191.345 70.7603 191.766V192.442C70.7603 193.019 70.8597 193.508 71.0586 193.909C71.2608 194.307 71.5408 194.61 71.8988 194.819C72.2567 195.024 72.6727 195.127 73.1467 195.127C73.4549 195.127 73.7333 195.084 73.9819 194.998C74.2338 194.908 74.4509 194.776 74.6332 194.6C74.8155 194.421 74.9563 194.199 75.0558 193.934L76.1893 194.252C76.07 194.636 75.8694 194.975 75.5877 195.266C75.306 195.555 74.958 195.78 74.5437 195.942C74.1294 196.101 73.6637 196.181 73.1467 196.181ZM80.3406 196.201C79.8567 196.201 79.4175 196.11 79.0231 195.927C78.6287 195.742 78.3155 195.475 78.0835 195.127C77.8514 194.776 77.7354 194.351 77.7354 193.854C77.7354 193.417 77.8216 193.062 77.994 192.79C78.1663 192.515 78.3967 192.3 78.685 192.144C78.9734 191.988 79.2915 191.872 79.6396 191.796C79.9909 191.717 80.3439 191.654 80.6985 191.607C81.1625 191.547 81.5387 191.503 81.8271 191.473C82.1187 191.44 82.3308 191.385 82.4634 191.309C82.5993 191.233 82.6673 191.1 82.6673 190.911V190.871C82.6673 190.381 82.533 190 82.2646 189.728C81.9994 189.456 81.5967 189.32 81.0565 189.32C80.4963 189.32 80.0572 189.443 79.739 189.688C79.4208 189.933 79.1971 190.195 79.0678 190.474L77.9542 190.076C78.1531 189.612 78.4182 189.251 78.7496 188.992C79.0844 188.73 79.449 188.548 79.8434 188.445C80.2411 188.339 80.6322 188.286 81.0167 188.286C81.262 188.286 81.5437 188.316 81.8619 188.376C82.1834 188.432 82.4933 188.55 82.7915 188.729C83.0932 188.908 83.3434 189.178 83.5423 189.539C83.7411 189.9 83.8406 190.384 83.8406 190.991V196.022H82.6673V194.988H82.6076C82.5281 195.154 82.3955 195.331 82.2099 195.52C82.0243 195.709 81.7773 195.869 81.4691 196.002C81.1609 196.135 80.7847 196.201 80.3406 196.201ZM80.5195 195.147C80.9835 195.147 81.3746 195.056 81.6928 194.873C82.0143 194.691 82.2563 194.456 82.4187 194.168C82.5844 193.879 82.6673 193.576 82.6673 193.258V192.184C82.6175 192.244 82.5082 192.298 82.3391 192.348C82.1734 192.394 81.9812 192.436 81.7624 192.472C81.547 192.505 81.3365 192.535 81.131 192.562C80.9289 192.585 80.7648 192.605 80.6388 192.621C80.3339 192.661 80.0489 192.726 79.7837 192.815C79.5219 192.901 79.3098 193.032 79.1474 193.208C78.9883 193.38 78.9087 193.616 78.9087 193.914C78.9087 194.322 79.0595 194.63 79.3612 194.839C79.6661 195.044 80.0522 195.147 80.5195 195.147ZM85.9821 196.022V188.386H87.1156V189.579H87.215C87.3741 189.171 87.631 188.855 87.9856 188.629C88.3403 188.4 88.7662 188.286 89.2633 188.286C89.7671 188.286 90.1864 188.4 90.5211 188.629C90.8592 188.855 91.1227 189.171 91.3116 189.579H91.3912C91.5867 189.184 91.88 188.871 92.2711 188.639C92.6622 188.404 93.1312 188.286 93.6781 188.286C94.3609 188.286 94.9193 188.5 95.3535 188.927C95.7877 189.352 96.0048 190.013 96.0048 190.911V196.022H94.8315V190.911C94.8315 190.348 94.6774 189.945 94.3691 189.703C94.0609 189.461 93.698 189.34 93.2804 189.34C92.7434 189.34 92.3275 189.502 92.0325 189.827C91.7375 190.149 91.59 190.556 91.59 191.05V196.022H90.3968V190.792C90.3968 190.358 90.256 190.008 89.9743 189.743C89.6925 189.474 89.3296 189.34 88.8855 189.34C88.5806 189.34 88.2955 189.421 88.0304 189.584C87.7685 189.746 87.5564 189.971 87.394 190.26C87.2349 190.545 87.1554 190.875 87.1554 191.249V196.022H85.9821ZM103.261 191.428V196.022H102.088V185.84H103.261V189.579H103.36C103.539 189.184 103.808 188.871 104.166 188.639C104.527 188.404 105.008 188.286 105.607 188.286C106.128 188.286 106.584 188.391 106.975 188.599C107.366 188.805 107.669 189.121 107.884 189.549C108.103 189.973 108.213 190.513 108.213 191.17V196.022H107.039V191.249C107.039 190.643 106.882 190.174 106.567 189.842C106.255 189.507 105.823 189.34 105.269 189.34C104.885 189.34 104.54 189.421 104.235 189.584C103.934 189.746 103.695 189.983 103.519 190.295C103.347 190.606 103.261 190.984 103.261 191.428ZM113.461 196.181C112.772 196.181 112.167 196.017 111.647 195.689C111.13 195.361 110.725 194.902 110.434 194.312C110.145 193.722 110.001 193.032 110.001 192.244C110.001 191.448 110.145 190.754 110.434 190.16C110.725 189.567 111.13 189.106 111.647 188.778C112.167 188.45 112.772 188.286 113.461 188.286C114.151 188.286 114.754 188.45 115.271 188.778C115.791 189.106 116.196 189.567 116.484 190.16C116.776 190.754 116.922 191.448 116.922 192.244C116.922 193.032 116.776 193.722 116.484 194.312C116.196 194.902 115.791 195.361 115.271 195.689C114.754 196.017 114.151 196.181 113.461 196.181ZM113.461 195.127C113.985 195.127 114.416 194.993 114.754 194.724C115.092 194.456 115.342 194.103 115.505 193.665C115.667 193.228 115.748 192.754 115.748 192.244C115.748 191.733 115.667 191.257 115.505 190.817C115.342 190.376 115.092 190.02 114.754 189.748C114.416 189.476 113.985 189.34 113.461 189.34C112.938 189.34 112.507 189.476 112.169 189.748C111.831 190.02 111.58 190.376 111.418 190.817C111.256 191.257 111.174 191.733 111.174 192.244C111.174 192.754 111.256 193.228 111.418 193.665C111.58 194.103 111.831 194.456 112.169 194.724C112.507 194.993 112.938 195.127 113.461 195.127ZM118.713 196.022V188.386H119.846V189.579H119.945C120.105 189.171 120.361 188.855 120.716 188.629C121.071 188.4 121.497 188.286 121.994 188.286C122.498 188.286 122.917 188.4 123.252 188.629C123.59 188.855 123.853 189.171 124.042 189.579H124.122C124.317 189.184 124.61 188.871 125.002 188.639C125.393 188.404 125.862 188.286 126.409 188.286C127.091 188.286 127.65 188.5 128.084 188.927C128.518 189.352 128.735 190.013 128.735 190.911V196.022H127.562V190.911C127.562 190.348 127.408 189.945 127.1 189.703C126.791 189.461 126.428 189.34 126.011 189.34C125.474 189.34 125.058 189.502 124.763 189.827C124.468 190.149 124.32 190.556 124.32 191.05V196.022H123.127V190.792C123.127 190.358 122.986 190.008 122.705 189.743C122.423 189.474 122.06 189.34 121.616 189.34C121.311 189.34 121.026 189.421 120.761 189.584C120.499 189.746 120.287 189.971 120.124 190.26C119.965 190.545 119.886 190.875 119.886 191.249V196.022H118.713ZM134.082 196.181C133.346 196.181 132.712 196.019 132.178 195.694C131.648 195.366 131.238 194.908 130.95 194.322C130.665 193.732 130.523 193.046 130.523 192.263C130.523 191.481 130.665 190.792 130.95 190.195C131.238 189.595 131.64 189.128 132.153 188.793C132.67 188.455 133.273 188.286 133.963 188.286C134.361 188.286 134.753 188.352 135.141 188.485C135.529 188.618 135.882 188.833 136.2 189.131C136.518 189.426 136.772 189.817 136.961 190.305C137.15 190.792 137.244 191.392 137.244 192.104V192.601H131.358V191.587H136.051C136.051 191.156 135.965 190.772 135.792 190.434C135.623 190.096 135.381 189.829 135.067 189.633C134.755 189.438 134.387 189.34 133.963 189.34C133.496 189.34 133.091 189.456 132.75 189.688C132.412 189.917 132.152 190.215 131.969 190.583C131.787 190.951 131.696 191.345 131.696 191.766V192.442C131.696 193.019 131.795 193.508 131.994 193.909C132.196 194.307 132.476 194.61 132.834 194.819C133.192 195.024 133.608 195.127 134.082 195.127C134.39 195.127 134.669 195.084 134.917 194.998C135.169 194.908 135.386 194.776 135.569 194.6C135.751 194.421 135.892 194.199 135.991 193.934L137.125 194.252C137.006 194.636 136.805 194.975 136.523 195.266C136.242 195.555 135.894 195.78 135.479 195.942C135.065 196.101 134.599 196.181 134.082 196.181Z" fill="#8F8F8F"/>
</svg>
